Y9_100_1_ground_reaction
inDegrees=no
nColumns=28
nRows=69
DataType=double
version=3
OpenSimVersion=4.0
endheader
time	ground_force_1_vx	ground_force_1_vy	ground_force_1_vz	ground_force_1_px	ground_force_1_py	ground_force_1_pz	ground_torque_1_x	ground_torque_1_y	ground_torque_1_z	ground_force_2_vx	ground_force_2_vy	ground_force_2_vz	ground_force_2_px	ground_force_2_py	ground_force_2_pz	ground_torque_2_x	ground_torque_2_y	ground_torque_2_z	ground_force_3_vx	ground_force_3_vy	ground_force_3_vz	ground_force_3_px	ground_force_3_py	ground_force_3_pz	ground_torque_3_x	ground_torque_3_y	ground_torque_3_z
1.7775	0	0	-0	0	0	-0	-0	-0	0	107.03	628.09	-34.72	0.39495	-0.00049	-0.12598	-0	-0.00217	0	46.96	66.78	-13.05	0.8731	-0.00108	-0.23658	-0	-0.18697	0
1.778	0	0	-0	0	0	-0	-0	-0	0	105.94	625.3	-34.74	0.39591	-0.00049	-0.12569	-0	-0.08136	0	46.99	77.76000000000001	-13.72	0.87075	-0.00108	-0.23043	-0	0.27793	0
1.7785	0	0	-0	0	0	-0	-0	-0	0	107.02	625.29	-34.02	0.39599	-0.00049	-0.12564	-0	-0.00024	0	46.66	81.89	-13.02	0.87807	-0.00108	-0.23319	-0	0.49068	0
1.779	0	0	-0	0	0	-0	-0	-0	0	108.46	623.88	-34.75	0.39575	-0.00049	-0.12532	-0	0.19944	0	49.11	83.23999999999999	-11.63	0.8772300000000001	-0.00108	-0.23351	-0	0.5307000000000001	0
1.7795	0	0	-0	0	0	-0	-0	-0	0	109.18	621.0700000000001	-35.12	0.39599	-0.00049	-0.12551	-0	0.19891	0	54	85.94	-13.01	0.8735499999999999	-0.00108	-0.23284	-0	0.45225	0
1.78	0	0	-0	0	0	-0	-0	-0	0	109.53	621.0700000000001	-34.39	0.39602	-0.00049	-0.12591	-0	0.10251	0	58.2	90.01000000000001	-15.78	0.87602	-0.00108	-0.23533	-0	0.06286	0
1.7805	0	0	-0	0	0	-0	-0	-0	0	108.45	622.48	-33.67	0.396	-0.00049	-0.126	-0	0.17286	0	59.62	98.23	-17.5	0.87763	-0.00108	-0.23229	-0	0.11517	0
1.781	0	0	-0	0	0	-0	-0	-0	0	107.36	619.7	-33.68	0.3964	-0.00049	-0.12571	-0	0.07113	0	57.89	103.74	-17.84	0.87587	-0.00108	-0.2302	-0	0.41519	0
1.7815	0	0	-0	0	0	-0	-0	-0	0	108.07	618.29	-33.32	0.3964	-0.00049	-0.126	-0	-0.02707	0	55.1	105.13	-17.14	0.8784400000000001	-0.00108	-0.2334	-0	0.46866	0
1.782	0	0	-0	0	0	-0	-0	-0	0	108.79	616.88	-34.05	0.39611	-0.00049	-0.12591	-0	0.17468	0	54.75	107.89	-16.09	0.8785599999999999	-0.00108	-0.2306	-0	0.42761	0
1.7825	0	0	-0	0	0	-0	-0	-0	0	109.51	615.48	-34.42	0.3967	-0.00049	-0.12601	-0	0.27299	0	55.46	114.75	-17.81	0.8778400000000001	-0.00108	-0.23005	-0	0.3257	0
1.783	0	0	-0	0	0	-0	-0	-0	0	110.23	615.47	-33.34	0.39646	-0.00049	-0.12594	-0	0.20404	0	54.77	116.11	-20.58	0.87774	-0.00108	-0.23179	-0	0.07496999999999999	0
1.7835	0	0	-0	0	0	-0	-0	-0	0	109.14	612.6900000000001	-32.63	0.39687	-0.00049	-0.12582	-0	0.23715	0	52.69	123	-21.61	0.8791599999999999	-0.00108	-0.23095	-0	0.1432	0
1.784	0	0	-0	0	0	-0	-0	-0	0	108.41	611.3	-32.64	0.39706	-0.00049	-0.12591	-0	0.03308	0	48.51	124.41	-21.26	0.87798	-0.00108	-0.22811	-0	0.49113	0
1.7845	0	0	-0	0	0	-0	-0	-0	0	108.77	611.3	-32.63	0.39709	-0.00049	-0.12614	-0	0.03284	0	44.66	123.07	-20.57	0.8795700000000001	-0.00108	-0.23056	-0	0.40836	0
1.785	0	0	-0	0	0	-0	-0	-0	0	109.86	609.88	-33.01	0.39712	-0.00049	-0.12578	-0	0.33846	0	42.91	127.22	-20.21	0.88073	-0.00108	-0.23025	-0	0.14434	0
1.7855	0	0	-0	0	0	-0	-0	-0	0	110.21	607.08	-33.02	0.39764	-0.00049	-0.12595	-0	0.36433	0	42.58	132.71	-22.28	0.8809600000000001	-0.00108	-0.22818	-0	0.15798	0
1.786	0	0	-0	0	0	-0	-0	-0	0	110.92	605.6799999999999	-31.94	0.39764	-0.00049	-0.12596	-0	0.21773	0	40.5	134.09	-24.36	0.88312	-0.00108	-0.23052	-0	0.17135	0
1.7865	0	0	-0	0	0	-0	-0	-0	0	110.56	605.6799999999999	-31.94	0.39762	-0.00049	-0.12619	-0	0.32086	0	37.71	135.49	-24.36	0.8837	-0.00108	-0.22906	-0	0.19689	0
1.787	0	0	-0	0	0	-0	-0	-0	0	109.46	602.9	-31.6	0.39834	-0.00049	-0.1261	-0	0.09234000000000001	0	32.82	134.16	-24.01	0.88225	-0.00108	-0.22829	-0	0.29093	0
1.7875	0	0	-0	0	0	-0	-0	-0	0	109.46	602.9	-31.23	0.39804	-0.00049	-0.12631	-0	0.09620000000000001	0	27.92	132.84	-23.32	0.8834500000000001	-0.00108	-0.2295	-0	0.09236	0
1.788	0	0	-0	0	0	-0	-0	-0	0	109.82	602.9	-31.59	0.39747	-0.00049	-0.1261	-0	0.31563	0	25.13	138.37	-23.3	0.8854500000000001	-0.00108	-0.22793	-0	-0.16383	0
1.7885	0	0	-0	0	0	-0	-0	-0	0	110.54	598.6900000000001	-31.98	0.39858	-0.00049	-0.12615	-0	0.36218	0	23.75	141.12	-24.34	0.88514	-0.00108	-0.2265	-0	0.05429999999999999	0
1.789	0	0	-0	0	0	-0	-0	-0	0	111.97	597.29	-30.9	0.39834	-0.00049	-0.12616	-0	0.25351	0	20.95	138.39	-25.39	0.88559	-0.00108	-0.22854	-0	0.11212	0
1.7895	0	0	-0	0	0	-0	-0	-0	0	111.61	598.6900000000001	-30.17	0.39806	-0.00049	-0.12625	-0	0.28389	0	17.11	137.06	-25.04	0.88839	-0.00108	-0.22879	-0	0.09354999999999999	0
1.79	0	0	-0	0	0	-0	-0	-0	0	109.79	594.51	-29.83	0.39899	-0.00049	-0.12625	-0	0.15837	0	12.57	139.85	-23.65	0.88587	-0.00108	-0.22661	-0	0.07568000000000001	0
1.7905	0	0	-0	0	0	-0	-0	-0	0	109.42	593.12	-29.84	0.39922	-0.00049	-0.12634	-0	0.13306	0	8.029999999999999	141.27	-23.64	0.8884500000000001	-0.00108	-0.22823	-0	-0.02029	0
1.791	0	0	-0	0	0	-0	-0	-0	0	110.15	593.11	-30.91	0.39837	-0.00049	-0.12642	-0	0.33734	0	5.93	142.66	-23.98	0.88913	-0.00108	-0.22795	-0	-0.2247	0
1.7915	0	0	-0	0	0	-0	-0	-0	0	111.22	590.3	-30.57	0.39927	-0.00049	-0.12633	-0	0.41244	0	4.2	145.42	-25.02	0.8886799999999999	-0.00108	-0.22656	-0	-0.02275	0
1.792	0	0	-0	0	0	-0	-0	-0	0	112.3	590.29	-29.48	0.39905	-0.00049	-0.12649	-0	0.26234	0	1.4	142.69	-25.72	0.8891699999999999	-0.00108	-0.22745	-0	-0.06566	0
1.7925	0	0	-0	0	0	-0	-0	-0	0	111.93	588.9	-28.77	0.39867	-0.00049	-0.12652	-0	0.29682	0	-2.09	142.73	-24.68	0.89073	-0.00108	-0.22713	-0	-0.1298	0
1.793	0	0	-0	0	0	-0	-0	-0	0	110.84	586.11	-29.14	0.39942	-0.00049	-0.12673	-0	0.26773	0	-5.59	146.89	-23.97	0.8885299999999999	-0.00108	-0.22494	-0	-0.37337	0
1.7935	0	0	-0	0	0	-0	-0	-0	0	110.47	584.72	-29.15	0.3996499999999999	-0.00049	-0.12682	-0	0.1651	0	-8.720000000000001	148.3	-23.97	0.8913300000000001	-0.00108	-0.2265	-0	-0.3409	0
1.794	0	0	-0	0	0	-0	-0	-0	0	111.19	583.3099999999999	-29.15	0.39935	-0.00049	-0.12642	-0	0.32393	0	-10.46	148.31	-24.66	0.89209	-0.00108	-0.22669	-0	-0.2608	0
1.7945	0	0	-0	0	0	-0	-0	-0	0	111.55	580.51	-29.17	0.40022	-0.00049	-0.1266	-0	0.3578	0	-11.51	148.31	-25.71	0.89062	-0.00108	-0.22603	-0	-0.19439	0
1.795	0	0	-0	0	0	-0	-0	-0	0	112.62	579.11	-28.09	0.39995	-0.00049	-0.12661	-0	0.29946	0	-13.61	146.95	-26.4	0.8913	-0.00108	-0.22751	-0	-0.30785	0
1.7955	0	0	-0	0	0	-0	-0	-0	0	112.62	580.51	-27.36	0.39937	-0.00049	-0.12671	-0	0.34364	0	-16.05	151.11	-25.7	0.8929600000000001	-0.00108	-0.22722	-0	-0.4833	0
1.796	0	0	-0	0	0	-0	-0	-0	0	111.88	576.3200000000001	-28.1	0.40012	-0.00049	-0.12679	-0	0.23725	0	-18.84	155.26	-24.99	0.89216	-0.00108	-0.22514	-0	-0.5248400000000001	0
1.7965	0	0	-0	0	0	-0	-0	-0	0	111.16	573.53	-28.12	0.4006	-0.00049	-0.12673	-0	0.29026	0	-20.93	155.27	-26.03	0.8939400000000001	-0.00108	-0.22631	-0	-0.45778	0
1.797	0	0	-0	0	0	-0	-0	-0	0	111.52	574.92	-27.74	0.39973	-0.00049	-0.12686	-0	0.38514	0	-21.27	153.9	-26.73	0.8939	-0.00108	-0.22682	-0	-0.35912	0
1.7975	0	0	-0	0	0	-0	-0	-0	0	111.86	569.33	-27.42	0.40116	-0.00049	-0.1267	-0	0.43349	0	-21.96	156.65	-27.42	0.8936499999999999	-0.00108	-0.22636	-0	-0.35013	0
1.798	0	0	-0	0	0	-0	-0	-0	0	113.3	567.92	-26.7	0.40123	-0.00049	-0.12699	-0	0.26363	0	-23.37	158.04	-27.42	0.89325	-0.00108	-0.22694	-0	-0.5966699999999999	0
1.7985	0	0	-0	0	0	-0	-0	-0	0	113.3	569.3200000000001	-26.32	0.40032	-0.00049	-0.12687	-0	0.28548	0	-24.77	160.8	-27.06	0.8950499999999999	-0.00108	-0.22709	-0	-0.7941699999999999	0
1.799	0	0	-0	0	0	-0	-0	-0	0	111.84	565.14	-26.71	0.40103	-0.00049	-0.12692	-0	0.32419	0	-26.5	163.57	-26.71	0.8934500000000001	-0.00108	-0.22466	-0	-0.77107	0
1.7995	0	0	-0	0	0	-0	-0	-0	0	111.84	563.74	-27.07	0.40099	-0.00049	-0.12705	-0	0.42675	0	-27.55	160.82	-27.76	0.8944	-0.00108	-0.22639	-0	-0.51189	0
1.8	0	0	-0	0	0	-0	-0	-0	0	112.2	562.34	-26.36	0.4013	-0.00049	-0.12683	-0	0.40369	0	-27.54	163.57	-28.44	0.89539	-0.00108	-0.22681	-0	-0.6163200000000001	0
1.8005	0	0	-0	0	0	-0	-0	-0	0	112.9	558.14	-26.38	0.40187	-0.00049	-0.12686	-0	0.46643	0	-27.54	167.69	-28.78	0.89522	-0.00108	-0.226	-0	-0.7896599999999999	0
1.801	0	0	-0	0	0	-0	-0	-0	0	113.62	556.73	-25.3	0.40156	-0.00049	-0.12662	-0	0.33381	0	-28.24	169.07	-29.13	0.89501	-0.00108	-0.22663	-0	-0.9011699999999999	0
1.8015	0	0	-0	0	0	-0	-0	-0	0	113.25	555.34	-24.58	0.40149	-0.00049	-0.12691	-0	0.3479100000000001	0	-28.93	171.83	-28.77	0.89683	-0.00108	-0.22678	-0	-0.8975	0
1.802	0	0	-0	0	0	-0	-0	-0	0	112.52	552.55	-25.68	0.40233	-0.00049	-0.12719	-0	0.49355	0	-29.27	173.2	-28.77	0.8967000000000001	-0.00108	-0.2273	-0	-0.65332	0
1.8025	0	0	-0	0	0	-0	-0	-0	0	112.51	552.55	-25.31	0.402	-0.00049	-0.12742	-0	0.26293	0	-29.97	173.2	-29.46	0.89758	-0.00108	-0.22827	-0	-0.6431699999999999	0
1.803	0	0	-0	0	0	-0	-0	-0	0	112.15	551.16	-24.96	0.40161	-0.00049	-0.12723	-0	0.28539	0	-29.27	178.69	-29.45	0.8964500000000001	-0.00108	-0.2279	-0	-0.93428	0
1.8035	0	0	-0	0	0	-0	-0	-0	0	112.5	546.96	-24.62	0.4025	-0.00049	-0.12723	-0	0.37183	0	-28.56	182.81	-29.79	0.89642	-0.00108	-0.22714	-0	-1.05327	0
1.804	0	0	-0	0	0	-0	-0	-0	0	113.57	545.55	-23.54	0.40254	-0.00049	-0.12724	-0	0.24335	0	-28.56	182.81	-30.48	0.8974	-0.00108	-0.22806	-0	-0.99205	0
1.8045	0	0	-0	0	0	-0	-0	-0	0	113.57	545.55	-23.9	0.40189	-0.00049	-0.12753	-0	0.46364	0	-28.56	184.18	-29.43	0.8973300000000001	-0.00108	-0.22831	-0	-0.99573	0
1.805	0	0	-0	0	0	-0	-0	-0	0	112.48	541.37	-24.28	0.403	-0.00049	-0.12733	-0	0.41176	0	-28.55	186.93	-29.43	0.8972100000000001	-0.00108	-0.22775	-0	-0.9420700000000001	0
1.8055	0	0	-0	0	0	-0	-0	-0	0	112.47	539.97	-23.92	0.40296	-0.00049	-0.12767	-0	0.33222	0	-28.55	189.67	-30.46	0.8970900000000001	-0.00108	-0.22818	-0	-1.07349	0
1.806	0	0	-0	0	0	-0	-0	-0	0	112.46	538.5700000000001	-23.21	0.40292	-0.00049	-0.12744	-0	0.3514	0	-27.5	195.17	-30.45	0.8979600000000001	-0.00108	-0.22856	-0	-1.36921	0
1.8065	0	0	-0	0	0	-0	-0	-0	0	112.45	534.38	-22.87	0.4034700000000001	-0.00049	-0.12745	-0	0.32549	0	-26.44	199.27	-30.44	0.89619	-0.00108	-0.22777	-0	-1.33432	0
1.807	0	0	-0	0	0	-0	-0	-0	0	113.52	532.97	-22.15	0.40319	-0.00049	-0.12776	-0	0.19405	0	-26.44	197.9	-30.79	0.8980499999999999	-0.00108	-0.22881	-0	-1.1731	0
1.8075	0	0	-0	0	0	-0	-0	-0	0	113.52	532.97	-21.78	0.40285	-0.00049	-0.12773	-0	0.3016	0	-26.43	200.65	-30.09	0.89881	-0.00108	-0.22884	-0	-1.08226	0
1.808	0	0	-0	0	0	-0	-0	-0	0	112.43	527.39	-22.54	0.40396	-0.00049	-0.12712	-0	0.48962	0	-26.42	204.77	-29.73	0.89861	-0.00108	-0.228	-0	-1.18862	0
1.8085	0	0	-0	0	0	-0	-0	-0	0	112.05	526	-22.18	0.40424	-0.00049	-0.12773	-0	0.36341	0	-26.43	207.52	-30.77	0.89847	-0.00108	-0.22906	-0	-1.37681	0
1.809	0	0	-0	0	0	-0	-0	-0	0	112.41	524.59	-21.83	0.40389	-0.00049	-0.12754	-0	0.35856	0	-25.73	211.64	-30.41	0.89925	-0.00108	-0.22891	-0	-1.60768	0
1.8095	0	0	-0	0	0	-0	-0	-0	0	112.4	521.8	-21.12	0.40416	-0.00049	-0.12768	-0	0.34377	0	-25.37	213	-30.76	0.89842	-0.00108	-0.22873	-0	-1.35205	0
1.81	0	0	-0	0	0	-0	-0	-0	0	112.74	520.4	-20.03	0.40415	-0.00049	-0.12797	-0	0.13349	0	-25.71	214.38	-31.1	0.89913	-0.00108	-0.22986	-0	-1.28567	0
1.8105	0	0	-0	0	0	-0	-0	-0	0	112.38	519	-20.4	0.40373	-0.00049	-0.12783	-0	0.38825	0	-25.71	218.51	-30.74	0.9005599999999999	-0.00108	-0.22969	-0	-1.47161	0
1.811	0	0	-0	0	0	-0	-0	-0	0	111.65	514.8200000000001	-20.79	0.40495	-0.00049	-0.1279	-0	0.32903	0	-26.05	224.01	-30.38	0.89862	-0.00108	-0.22866	-0	-1.62368	0
1.8115	0	0	-0	0	0	-0	-0	-0	0	112	513.42	-20.43	0.40494	-0.00049	-0.12798	-0	0.14806	0	-26.39	225.38	-31.07	0.9008700000000001	-0.00108	-0.2298	-0	-1.65256	0
